<?xml version="1.0" encoding="UTF-8"?>
<svg xmlns="http://www.w3.org/2000/svg" width="675.59" height="307.14" viewBox="0 0 675.59 307.14">
  <g id="boundary">
    <path d="M675.59,307.14H0V0h675.59v307.14ZM1,306.14h673.59V1H1v305.14Z"/>
  </g>
  <g id="objects">
    <path d="M134.26,113.16h-44.58v-44.01h44.58v44.01ZM90.69,112.16h42.58v-42.01h-42.58v42.01Z"/>
    <path d="M255.58,35.37h-55.64V4.44h55.64v30.93ZM200.95,34.37h53.64V5.44h-53.64v28.93Z"/>
    <path d="M390.26,29.58h-55.21V5.11h55.21v24.47ZM336.05,28.58h53.21V6.11h-53.21v22.47Z"/>
    <path d="M497.27,30.72h-63.54V4.64h63.54v26.08ZM434.73,29.72h61.54V5.64h-61.54v24.08Z"/>
    <path d="M554.69,131.79h-39.02v-39.02h39.02v39.02ZM516.67,130.79h37.02v-37.02h-37.02v37.02Z"/>
    <path d="M671.04,175.3h-26.91v-50.27h26.91v50.27ZM645.14,174.3h24.91v-48.27h-24.91v48.27Z"/>
    <path d="M246.32,200.36h-49.09v-49.09h49.09v49.09ZM198.22,199.36h47.09v-47.09h-47.09v47.09Z"/>
    <path d="M436.34,177.02h-50.13v-48.01h50.13v48.01ZM387.21,176.02h48.13v-46.01h-48.13v46.01Z"/>
    <path d="M674.74,302.57h-101.12v-98.13h101.12v98.13ZM574.62,301.57h99.12v-96.13h-99.12v96.13Z"/>
    <path d="M574.69,302.55h-25.94v-27.64h25.94v27.64ZM549.75,301.55h23.94v-25.64h-23.94v25.64Z"/>
    <path d="M474.93,306.22h-33.47v-19.07h33.47v19.07ZM442.46,305.22h31.47v-17.07h-31.47v17.07Z"/>
    <path d="M372.62,300.95h-74.51v-25.28h74.51v25.28ZM299.12,299.95h72.51v-23.28h-72.51v23.28Z"/>
    <path d="M117.56,306.49h-55.35v-24.57h55.35v24.57ZM63.21,305.49h53.35v-22.57h-53.35v22.57Z"/>
  </g>
</svg>